<?xml version="1.0" encoding="UTF-8" standalone="no"?>
<!DOCTYPE svg PUBLIC "-//W3C//DTD SVG 1.1//EN" "http://www.w3.org/Graphics/SVG/1.1/DTD/svg11.dtd">
<svg width="100%" height="100%" viewBox="0 0 616 193" version="1.1" xmlns="http://www.w3.org/2000/svg" xmlns:xlink="http://www.w3.org/1999/xlink" xml:space="preserve" xmlns:serif="http://www.serif.com/" style="fill-rule:evenodd;clip-rule:evenodd;stroke-linejoin:round;stroke-miterlimit:2;">
    <g>
        <g>
            <path d="M430.88,14.81C430.88,14.81 419.35,19.4 405.94,34.18C392.53,48.96 384.72,65.58 390.5,70C392.72,71.68 397.84,72 407.13,63.6C415.703,56.157 422.433,46.824 426.79,36.34C432.79,21.71 430.88,14.99 430.88,14.83M504.27,41.4C489.37,33.76 478.48,24.4 467.15,18.61C456.34,13.06 449.35,10.74 440.61,11.91C439.391,12.127 438.188,12.428 437.01,12.81C435.832,13.192 441.51,28.18 423.6,54C405.46,80.18 389,80 384.32,72.81C379.42,65.22 385.75,49.75 396.32,35.98C407.39,21.58 426.83,9.64 426.83,9.64C426.83,9.64 420.63,5.85 405.41,14.48C390.56,22.86 365,42.86 341.28,76.59C317.56,110.32 312.86,128.88 309.46,143.49C306.06,158.1 309.15,173.75 325.35,173.75C341.55,173.75 360.41,149.04 365.73,140.45C375.62,124.45 382.07,99.91 368.61,103.28C361.98,104.94 356.61,112.28 353.22,119.35C351.08,123.891 349.443,128.653 348.34,133.55C343.637,135.488 339.219,138.059 335.21,141.19C330.75,144.494 326.581,148.174 322.75,152.19C318.919,156.206 322.81,140.51 332.12,121.61C341.43,102.71 358.52,94.08 368.2,93.27C376.92,92.57 388.27,99.97 378.65,127.27C369.03,154.57 340.65,187.76 310.84,188.17C283.33,188.55 265.33,153.44 303.62,92.17C346,24.48 395.71,3.71 411.85,1.4C427.99,-0.91 433.24,6.21 433.24,6.21C442.955,2.224 453.449,0.494 463.93,1.15C483.64,2.48 498.88,16.43 519,26.23C513.77,31.23 508.78,36.48 504.28,41.4M592.82,18.61C579.16,27.37 560.26,35.31 542.1,33.61C537.5,38.36 532.58,43.86 527.65,49.86C559.14,56.09 586.73,36.58 601.4,19.97C606.748,13.998 611.342,7.392 615.08,0.3C608.401,7.256 600.926,13.402 592.81,18.61M550.88,107.33C551.119,106.915 551.313,106.476 551.46,106.02C551.268,104.539 550.058,103.384 548.57,103.26C545.57,103.12 541.48,103.69 530.75,115.57C521.849,125.381 514.188,136.249 507.94,147.93C501.8,159.15 499.31,167.51 502.84,169.67C503.987,170.264 505.317,170.4 506.56,170.05C508.95,169.48 511.66,167.24 515.78,162.47C517.71,160.23 519.85,157.06 522.41,153.55C529.51,143.89 547.35,113.48 550.88,107.33M439.42,120.25C441.21,115.57 443.49,106.38 438.75,102.77C433.66,98.94 420.68,107.93 420.61,117.15C420.52,126.59 429.75,130.86 431.96,131.46C433.22,131.8 433.66,131.75 434.27,130.74C436.228,127.367 437.948,123.862 439.42,120.25M429.6,137.42C426.383,135.935 423.383,134.021 420.68,131.73C417.97,129.457 415.705,126.7 414,123.6C413.82,123.3 413.64,123.53 413.44,123.8C413.24,124.07 412.44,124.8 405.52,134.94C398.6,145.08 387.97,166.09 397.59,169.67C403.75,171.96 414,161.17 419.59,154.02C423.399,149.029 426.85,143.776 429.92,138.3C430.21,137.69 429.92,137.55 429.61,137.42M538.73,161.69C536.12,165.87 533.14,173.89 541.73,168.9C552.24,162.83 567.21,140.12 567.21,140.12L574,140.12C567.822,149.62 560.943,158.645 553.42,167.12C542.77,178.92 529.78,189.64 520.63,188.58C509.94,187.33 513.29,173.3 513.29,173.3C513.29,173.3 498,189.58 487.42,188.41C473.13,186.83 477.49,169.17 477.49,169.17C477.49,169.17 461.33,189 450.32,188.39C433.06,187.39 437.4,166.39 442.2,151.6C444.77,143.69 447.15,137.48 447.15,137.48C447.15,137.48 445.44,137.93 441.76,138.48C439.84,138.75 436.34,138.95 436.34,138.95C436.34,138.95 429.15,151.63 423.4,159.25C417.65,166.87 393.21,193.14 378.83,187.88C365.53,183.02 369.93,162.66 377.67,146.48C388.97,122.89 420.75,89 439.08,93.48C458.08,98.09 439.51,132.76 439.51,132.76C439.51,132.76 439.51,132.89 439.71,132.98C440.09,133.12 441.08,133.23 443.37,132.78C445.743,132.296 448.069,131.603 450.32,130.71C452.571,129.817 469.42,90.71 490.52,64.54C511.62,38.37 553.71,-6.7 570.23,4.2C574.23,6.88 572.43,16.11 566.99,27.31C564.54,28.106 562.05,28.773 559.53,29.31C563.17,22.7 565.58,17.13 566.3,13.24C568.79,-0.28 537.22,28.24 514.66,58.88C501.071,77.352 488.998,96.892 478.56,117.31C482.635,114.824 486.526,112.047 490.2,109C500.263,100.656 509.826,91.727 518.84,82.26C527.52,73.374 535.661,63.977 543.22,54.12C545.622,54.004 548.015,53.757 550.39,53.38C542.148,64.566 533.161,75.184 523.49,85.16C514.49,94.26 504.75,104.05 496.29,111.16C488.733,117.586 480.763,123.509 472.43,128.89C464.097,134.271 452.7,168.68 463.43,171.23C469.74,172.75 482.2,153.56 482.2,153.56C482.2,153.56 498.46,128.75 508.26,117.56C521.63,102.36 533.14,93.56 544.64,93.4C551.34,93.28 555.29,100.4 555.29,100.4L558.44,95.52L577.84,95.52C577.84,95.52 541.61,157 538.71,161.63M592.81,18.61C579.15,27.37 560.25,35.31 542.09,33.61C537.49,38.36 532.57,43.86 527.64,49.86C559.13,56.09 586.72,36.58 601.39,19.97C606.742,13.999 611.339,7.392 615.08,0.3C608.401,7.256 600.926,13.402 592.81,18.61M320.36,48.77L301.91,48.77L291.48,65.62L309.93,65.62L320.36,48.77ZM233,107.12C240.85,96.36 262.51,58.65 262.51,58.65C262.322,57.171 261.116,56.015 259.63,55.89C256.63,55.75 251.63,56.76 241.7,69.19C231.77,81.62 224.06,91.51 218.44,101.8C212.28,113.03 209.59,120.95 213.13,123.1C214.278,123.675 215.599,123.811 216.84,123.48C219.14,122.9 222.15,120.59 226.28,115.84C228.22,113.62 230.42,110.63 233,107.12M134,56.12C128.9,52.27 115.93,61.28 115.86,70.48C115.78,79.93 127.53,82.82 129.05,82.89C129.497,82.927 129.945,82.833 130.34,82.62C130.611,82.462 130.827,82.225 130.96,81.94C132.341,79.225 133.583,76.442 134.68,73.6C136.47,68.92 138.74,59.73 134,56.12M126.31,88.65C122.793,87.551 119.432,86.005 116.31,84.05C113.284,82.077 110.823,79.351 109.17,76.14C108.99,75.84 108.79,76.07 108.61,76.34C108.43,76.61 107.39,77.91 100.45,88.09C93.51,98.27 83.23,119.09 92.86,122.67C99,125 109.37,114.12 115,107C119.213,101.405 123.106,95.575 126.66,89.54C126.89,88.93 126.66,88.79 126.32,88.68M277,94.92L283.76,94.92C283.76,94.92 249.89,143.92 230.76,141.64C220.08,140.39 223.25,127.21 223.25,127.21C223.25,127.21 208.25,144.77 194.47,141.21C181.97,138 190.04,117.21 190.04,117.21C188.62,117.78 161.57,148.27 142.56,140.96C122.67,133.28 133,107.75 136.78,100.07C139.99,93.6 143.54,87.3 143.54,87.3C143.54,87.3 140.49,88.16 138.54,88.6C136.59,89.04 133.77,89.6 133.77,89.6C133.77,89.6 124.36,104.89 118.61,112.52C112.86,120.15 88.42,146.37 74.02,141.15C59.62,135.93 63.19,115.78 71.28,99.78C84.4,73.83 115.53,41.94 134.28,46.78C153.22,51.61 137.54,82.33 137.54,82.33C137.54,82.33 141.31,82.82 150.34,76.66C163.34,67.79 180.5,43.93 199.08,46.73C207.84,48.05 216,57 204.84,74C201.28,79.46 195.31,84.34 190.74,79.51C187.89,76.51 190.38,71.04 193.37,67.3C195.731,64.207 199.486,62.487 203.37,62.72C207.254,62.953 206.44,55.72 198.63,55.82C192.31,55.94 176.31,70.67 167.28,85.55C159,99.21 146.45,122.48 159.05,127.55C170.6,132.21 192.58,106.12 202.76,92.45C212.94,78.78 236.14,47.8 255.6,46.56C262.3,46.12 266.29,52.23 266.29,52.23L268.54,48.67L288,48.67C288,48.67 251.35,109.83 248.49,114.46C246.24,118.08 243.25,126.22 251.49,121.66C259.73,117.1 277,94.92 277,94.92M266.41,192.92C252.084,183.003 234.921,177.995 217.51,178.65C207.958,178.91 199.084,183.72 193.65,191.58C186.23,178.63 171.56,170.68 148.88,170.86C112.23,171.28 75.88,188.18 47.08,188.16C19.48,188.16 -0.65,170.81 0,140C1.21,85.93 46.9,37.24 81,15.33C100.66,2.74 117.1,-1 127.85,0.21C135.69,1.08 145.12,10.14 139.17,23.49C130.43,43 118.36,41.4 118.81,32.07C119.06,26 123.1,22.18 126.14,20.07C128.07,18.74 131.48,18.36 133.26,18.32C134.99,16.86 136.26,6.18 122.26,9.69C108.26,13.2 91.26,27 75.12,44.83C58.98,62.66 33.85,96.36 27.64,131.75C24.74,148.16 26.64,178.09 65.55,177.75C98.55,177.48 147.19,155.75 191.89,156.2C209.24,156.37 224.34,161.05 236.11,168.31C247.67,175.43 261.53,185.83 266.45,192.93" style="fill:white;fill-rule:nonzero;"/>
        </g>
    </g>
</svg>
